<svg width="24" height="15" viewBox="0 0 24 15" fill="none" xmlns="http://www.w3.org/2000/svg">
<path d="M11.2489 0.383236C11.4264 0.171699 11.7418 0.144107 11.9533 0.321607C12.1649 0.499108 12.1925 0.814486 12.015 1.02602L1.08757 14.0488C0.910073 14.2603 0.594695 14.2879 0.383158 14.1104C0.171621 13.9329 0.144029 13.6175 0.32153 13.406L11.2489 0.383236Z" fill="#888A8B"/>
<path d="M11.5895 1.02581C11.412 0.814277 11.4396 0.498899 11.6511 0.321398C11.8626 0.143897 12.178 0.171489 12.3555 0.383026L23.2829 13.4058C23.4604 13.6173 23.4328 13.9327 23.2213 14.1102C23.0097 14.2877 22.6943 14.2601 22.5168 14.0486L11.5895 1.02581Z" fill="#888A8B"/>
</svg>
